<svg width="399" height="297" viewBox="0 0 399 297" fill="none" xmlns="http://www.w3.org/2000/svg">
<g filter="url(#filter0_d_35_5)">
<path d="M2.65664 101V3.98H60.4766L58.0966 20.36H25.6166V46.12H53.8966V62.5H25.6166V101H2.65664ZM121.482 1.59999C135.295 1.59999 146.028 6.03333 153.682 14.9C161.428 23.7667 165.302 36.2733 165.302 52.42C165.302 62.9667 163.528 72.0667 159.982 79.72C156.528 87.3733 151.488 93.2533 144.862 97.36C138.328 101.373 130.535 103.38 121.482 103.38C112.428 103.38 104.635 101.373 98.1016 97.36C91.5683 93.3467 86.5283 87.56 82.9816 80C79.5283 72.3467 77.8016 63.1533 77.8016 52.42C77.8016 41.9667 79.5283 32.9133 82.9816 25.26C86.5283 17.6067 91.5683 11.7733 98.1016 7.76C104.635 3.65333 112.428 1.59999 121.482 1.59999ZM121.482 18.4C114.855 18.4 109.908 21.1067 106.642 26.52C103.468 31.84 101.882 40.4733 101.882 52.42C101.882 64.3667 103.515 73.0467 106.782 78.46C110.048 83.8733 114.948 86.58 121.482 86.58C128.202 86.58 133.148 83.92 136.322 78.6C139.588 73.1867 141.222 64.46 141.222 52.42C141.222 40.38 139.588 31.7 136.322 26.38C133.055 21.06 128.108 18.4 121.482 18.4ZM224.999 63.9H216.039V101H193.079V3.98H224.859C238.112 3.98 248.052 6.40666 254.679 11.26C261.399 16.1133 264.759 23.5333 264.759 33.52C264.759 39.7733 263.265 45 260.279 49.2C257.292 53.3067 252.579 56.8067 246.139 59.7L270.779 101H244.879L224.999 63.9ZM216.039 48.08H225.699C230.832 48.08 234.659 46.9133 237.179 44.58C239.792 42.2467 241.099 38.56 241.099 33.52C241.099 28.8533 239.699 25.4467 236.899 23.3C234.192 21.1533 229.992 20.08 224.299 20.08H216.039V48.08ZM389.805 101H367.265L365.585 63.06C365.118 54.0067 364.885 45.9333 364.885 38.84C364.885 33.4267 365.025 28.2933 365.305 23.44L350.325 90.78H328.625L312.665 23.44C313.225 31.56 313.505 39.2133 313.505 46.4C313.505 51.8133 313.365 57.46 313.085 63.34L311.405 101H289.005L296.285 3.98H325.265L339.825 69.78L353.405 3.98H382.525L389.805 101ZM63.327 251L58.287 230.14H30.007L25.107 251H1.30695L30.567 153.98H58.427L87.687 251H63.327ZM33.927 213.48H54.367L44.147 170.64L33.927 213.48ZM151.958 257.72C156.905 258.28 160.545 259.727 162.878 262.06C165.305 264.487 166.518 267.66 166.518 271.58C166.518 276.34 164.605 280.213 160.778 283.2C157.045 286.187 152.005 287.68 145.658 287.68C142.485 287.68 139.545 287.26 136.838 286.42C134.131 285.673 131.845 284.693 129.978 283.48L135.018 273.26C138.191 274.847 141.178 275.64 143.978 275.64C148.365 275.64 150.558 274.24 150.558 271.44C150.558 269.76 149.531 268.547 147.478 267.8C145.425 267.053 142.158 266.68 137.678 266.68L139.358 252.82C128.065 251.14 119.151 245.96 112.618 237.28C106.178 228.507 102.958 216.84 102.958 202.28C102.958 191.733 104.825 182.633 108.558 174.98C112.385 167.327 117.611 161.54 124.238 157.62C130.958 153.607 138.565 151.6 147.058 151.6C153.125 151.6 158.491 152.487 163.158 154.26C167.918 156.033 172.398 158.693 176.598 162.24L165.678 175.26C162.785 173.02 159.938 171.34 157.138 170.22C154.338 169.1 151.351 168.54 148.178 168.54C141.645 168.54 136.465 171.293 132.638 176.8C128.905 182.307 127.038 190.8 127.038 202.28C127.038 213.573 128.905 221.973 132.638 227.48C136.465 232.893 141.738 235.6 148.458 235.6C152.005 235.6 155.225 234.947 158.118 233.64C161.011 232.24 164.138 230.28 167.498 227.76L177.718 240.92C174.545 244.093 170.765 246.8 166.378 249.04C161.991 251.187 157.185 252.54 151.958 253.1V257.72ZM253.065 251L248.025 230.14H219.745L214.845 251H191.045L220.305 153.98H248.165L277.425 251H253.065ZM223.665 213.48H244.105L233.885 170.64L223.665 213.48ZM336.376 151.6C350.19 151.6 360.923 156.033 368.576 164.9C376.323 173.767 380.196 186.273 380.196 202.42C380.196 212.967 378.423 222.067 374.876 229.72C371.423 237.373 366.383 243.253 359.756 247.36C353.223 251.373 345.43 253.38 336.376 253.38C327.323 253.38 319.53 251.373 312.996 247.36C306.463 243.347 301.423 237.56 297.876 230C294.423 222.347 292.696 213.153 292.696 202.42C292.696 191.967 294.423 182.913 297.876 175.26C301.423 167.607 306.463 161.773 312.996 157.76C319.53 153.653 327.323 151.6 336.376 151.6ZM336.376 168.4C329.75 168.4 324.803 171.107 321.536 176.52C318.363 181.84 316.776 190.473 316.776 202.42C316.776 214.367 318.41 223.047 321.676 228.46C324.943 233.873 329.843 236.58 336.376 236.58C343.096 236.58 348.043 233.92 351.216 228.6C354.483 223.187 356.116 214.46 356.116 202.42C356.116 190.38 354.483 181.7 351.216 176.38C347.95 171.06 343.003 168.4 336.376 168.4Z" fill="url(#paint0_linear_35_5)" shape-rendering="crispEdges"/>
</g>
<defs>
<filter id="filter0_d_35_5" x="0.506946" y="0.799975" width="398.098" height="295.68" filterUnits="userSpaceOnUse" color-interpolation-filters="sRGB">
<feFlood flood-opacity="0" result="BackgroundImageFix"/>
<feColorMatrix in="SourceAlpha" type="matrix" values="0 0 0 0 0 0 0 0 0 0 0 0 0 0 0 0 0 0 127 0" result="hardAlpha"/>
<feOffset dx="4" dy="4"/>
<feGaussianBlur stdDeviation="2.4"/>
<feComposite in2="hardAlpha" operator="out"/>
<feColorMatrix type="matrix" values="0 0 0 0 0.266667 0 0 0 0 0.266667 0 0 0 0 0.266667 0 0 0 0.33 0"/>
<feBlend mode="normal" in2="BackgroundImageFix" result="effect1_dropShadow_35_5"/>
<feBlend mode="normal" in="SourceGraphic" in2="effect1_dropShadow_35_5" result="shape"/>
</filter>
<linearGradient id="paint0_linear_35_5" x1="194" y1="-21" x2="194" y2="290.434" gradientUnits="userSpaceOnUse">
<stop stop-color="#686868"/>
<stop offset="0.375516" stop-color="#444444"/>
<stop offset="1" stop-color="#211E1D" stop-opacity="0.97"/>
</linearGradient>
</defs>
</svg>
