<svg width="25" height="28" viewBox="0 0 25 28" fill="none" xmlns="http://www.w3.org/2000/svg">
<path d="M11.6533 0.0249119C7.63175 0.260536 4.01078 2.09796 1.88175 4.98663C1.25809 5.83171 0.768845 6.76968 0.459705 7.71444C-0.360187 10.2225 -0.0698649 12.8755 1.2796 15.1797C1.79304 16.0565 2.2796 16.675 3.0968 17.4906C3.1882 17.5835 5.121 19.7019 7.38713 22.1963C9.85487 24.9128 11.5672 26.7774 11.6559 26.8454C12.1559 27.2305 12.8441 27.2305 13.3441 26.8454C13.4328 26.7774 15.1452 24.9128 17.6129 22.1963C19.8791 19.7019 21.8119 17.5835 21.9033 17.4906C22.7205 16.675 23.207 16.0565 23.7205 15.1797C25.242 12.581 25.4113 9.51108 24.1882 6.80819C23.2393 4.71702 21.5887 2.98155 19.3549 1.72866C17.1371 0.484833 14.3441 -0.131416 11.6533 0.0249119ZM13.1559 5.13163C13.7581 5.19733 14.2258 5.31515 14.7715 5.53944C16.2581 6.14663 17.2742 7.25225 17.6264 8.65241C17.6936 8.91522 17.699 8.98093 17.7016 9.48163C17.7016 10.0866 17.6748 10.2633 17.5135 10.7391C17.0807 12.0101 15.9382 13.0772 14.4758 13.5779C13.9355 13.7637 13.4947 13.8498 12.8844 13.8928C12.0941 13.9494 11.2904 13.8407 10.5242 13.5779C9.06186 13.0772 7.91938 12.0101 7.48659 10.7391C7.3253 10.2633 7.29842 10.0866 7.29842 9.48163C7.3011 8.98093 7.30648 8.91522 7.37368 8.65241C7.67476 7.45843 8.46508 6.46608 9.63713 5.81585C10.1129 5.55304 10.8119 5.30155 11.3495 5.20186C11.9113 5.09765 12.6049 5.07046 13.1559 5.13163Z" fill="#4FB121"/>
</svg>
